<svg width="465" height="125" viewBox="0 0 465 125" version="1.1" xmlns="http://www.w3.org/2000/svg" xmlns:xlink="http://www.w3.org/1999/xlink">
<title>github export</title>
<desc>Created using Figma</desc>
<g id="Canvas" transform="translate(-167 110)">
<clipPath id="clip-0" clip-rule="evenodd">
<path d="M 167 -110L 632 -110L 632 15L 167 15L 167 -110Z" fill="#FFFFFF"/>
</clipPath>
<g id="github export" clip-path="url(#clip-0)">
<g id="Logo">
<g id="React kit">
<use xlink:href="#path0_fill" transform="translate(257.065 -104.141)" fill="#0037CC"/>
</g>
<g id="Group 2">
<g id="Rakuten Logo">
<g id="Canvas">
<g id="Rakuten Logo">
<g id="Vector">
<g id="Vector">
<use xlink:href="#path1_fill" transform="matrix(4 0 0 4 539.481 -19.0811)"/>
</g>
</g>
<g id="Vector">
<g id="Vector">
<use xlink:href="#path2_fill" transform="matrix(4 0 0 4 486.175 -15.2291)"/>
</g>
</g>
<g id="Vector">
<g id="Vector">
<use xlink:href="#path3_fill" transform="matrix(4 0 0 4 522.596 -14.8435)"/>
</g>
</g>
<g id="Vector">
<g id="Vector">
<use xlink:href="#path4_fill" transform="matrix(4 0 0 4 572.963 -15.2841)"/>
</g>
</g>
<g id="Vector">
<g id="Vector">
<use xlink:href="#path5_fill" transform="matrix(4 0 0 4 554.753 -15.2841)"/>
</g>
</g>
<g id="Vector">
<g id="Vector">
<use xlink:href="#path6_fill" transform="matrix(4 0 0 4 505.25 -20.4567)"/>
</g>
</g>
<g id="Vector">
<g id="Vector">
<use xlink:href="#path7_fill" transform="matrix(4 0 0 4 470.04 -19.0811)"/>
</g>
</g>
<g id="Circle R">
<g id="Vector">
<g id="Vector">
<use xlink:href="#path8_fill" transform="matrix(4 0 0 4 443.07 -20.2367)" fill="#BF0000"/>
</g>
</g>
<g id="Vector">
<g id="Vector">
<use xlink:href="#path9_fill" transform="matrix(4 0 0 4 451.138 -14.8435)" fill="#FFFFFF"/>
</g>
</g>
</g>
</g>
</g>
<g id="by">
<use xlink:href="#path10_fill" transform="translate(401.296 -26.0156)"/>
</g>
</g>
</g>
<g id="Logo Mark">
<g id="Polygon">
<use xlink:href="#path11_fill" transform="translate(183 -110)" fill="#0037CC"/>
</g>
<g id="&#206;&#187;">
<use xlink:href="#path12_fill" transform="translate(193.41 -104.784)" fill="#FFFFFF"/>
</g>
</g>
</g>
</g>
</g>
<defs>
<path id="path0_fill" d="M 35.1972 29.0016L 41.9435 29.0016C 46.5338 29.0016 50.4285 32.9659 50.4285 37.7648C 50.4285 42.6332 46.6033 46.5976 41.9435 46.5976L 35.1972 46.5976L 35.1972 29.0016ZM 35.1972 74L 35.1972 56.3345L 43.3345 56.3345L 53.7669 74L 66.9117 74L 53.2105 52.9265C 58.7745 50.2141 61.5564 45.137 61.5564 37.8343C 61.5564 27.4019 53.0019 19.2647 41.9435 19.2647L 24.7648 19.2647L 24.7648 74L 35.1972 74ZM 76.7242 46.2498C 77.837 41.2423 81.0362 38.3212 85.2787 38.3212C 89.7299 38.3212 92.651 41.0336 93.6942 46.2498L 76.7242 46.2498ZM 95.3634 60.0901C 92.8596 63.4285 90.0081 65.1672 86.8784 65.1672C 81.1753 65.1672 77.211 61.342 76.5155 55.1521L 105.239 55.1521C 105.378 54.0393 105.448 53.0656 105.448 51.9529C 105.448 39.2949 96.4762 29.0711 85.2092 29.0711C 73.8031 29.0711 64.9703 39.0862 64.9703 52.1615C 64.9703 65.515 74.0117 75.1128 86.6002 75.1128C 93.9029 75.1128 99.4668 72.0526 104.405 65.3063L 95.3634 60.0901ZM 139.624 74L 148.665 74L 148.665 30.1839L 139.624 30.1839L 138.233 34.2178C 135.59 30.8099 132.252 29.1407 128.009 29.1407C 116.742 29.1407 107.562 39.434 107.562 52.092C 107.562 64.7499 116.464 75.1128 127.453 75.1128C 131.834 75.1128 135.451 73.3741 138.233 70.0357L 139.624 74ZM 128.079 38.8776C 133.99 38.8776 138.233 44.372 138.233 52.1615C 138.233 59.8815 133.99 65.3759 128.148 65.3759C 122.515 65.3759 117.994 59.4642 117.994 52.092C 117.994 44.7197 122.445 38.8776 128.079 38.8776ZM 190.564 39.2253C 186.321 32.6877 180.41 29.1407 173.524 29.1407C 162.188 29.1407 152.938 39.434 152.938 52.092C 152.938 64.8195 162.118 75.1128 173.524 75.1128C 180.34 75.1128 186.321 71.5658 190.564 64.9586L 181.592 59.6728C 179.506 62.9417 176.724 64.6804 173.524 64.6804C 167.891 64.6804 163.37 59.0469 163.37 52.092C 163.37 45.137 167.891 39.5035 173.524 39.5035C 176.724 39.5035 179.227 41.1032 181.592 44.5806L 190.564 39.2253ZM 198.257 20.5861L 198.257 30.1839L 190.745 30.1839L 190.745 39.9208L 198.257 39.9208L 198.257 61.6202C 198.257 63.9849 198.535 66.4887 198.883 67.7406C 200.204 72.1222 204.934 75.1128 210.637 75.1128C 217.313 75.1128 221.069 72.7481 224.964 66.28L 216.618 61.4811C 215.227 64.1935 213.836 65.3759 211.819 65.3759C 209.872 65.3759 208.689 64.124 208.689 62.1766L 208.689 39.9208L 220.443 39.9208L 220.443 30.1839L 208.689 30.1839L 208.689 20.5861L 198.257 20.5861ZM 282.992 74L 259.693 50.7705L 280.28 30.1839L 265.535 30.1839L 250.721 46.0412L 250.721 15.6481L 240.289 15.6481L 240.289 74L 250.721 74L 250.721 55.4303L 268.248 74L 282.992 74ZM 293.922 26.0805L 293.922 15.6481L 283.49 15.6481L 283.49 26.0805L 293.922 26.0805ZM 293.922 74L 293.922 30.1839L 283.49 30.1839L 283.49 74L 293.922 74ZM 305.037 20.5861L 305.037 30.1839L 297.525 30.1839L 297.525 39.9208L 305.037 39.9208L 305.037 61.6202C 305.037 63.9849 305.315 66.4887 305.663 67.7406C 306.984 72.1222 311.713 75.1128 317.417 75.1128C 324.093 75.1128 327.849 72.7481 331.744 66.28L 323.398 61.4811C 322.007 64.1935 320.616 65.3759 318.599 65.3759C 316.651 65.3759 315.469 64.124 315.469 62.1766L 315.469 39.9208L 327.223 39.9208L 327.223 30.1839L 315.469 30.1839L 315.469 20.5861L 305.037 20.5861Z"/>
<path id="path1_fill" d="M 2.70851 4.09976C 2.65088 4.20981 2.52122 4.3749 2.2763 4.3749C 2.11782 4.3749 1.80087 4.26484 1.80087 3.86588L 1.80087 2.04987L 3.34241 2.04987L 3.34241 1.04557L 1.80087 1.04557L 1.80087 0L 0.749163 0L 0.749163 1.04557L -4.85755e-15 1.04557L -4.85755e-15 2.04987L 0.749163 2.04987L 0.749163 3.86588C 0.749163 4.80138 1.52714 5.36544 2.2619 5.36544C 3.02546 5.36544 3.52972 4.87018 3.71701 4.34739L 2.70851 4.09976Z"/>
<path id="path2_fill" d="M 3.08309 0.0963028L 3.08309 0.288909C 2.78054 0.11006 2.43477 0 2.06019 0C 0.922045 0 -4.85755e-15 0.990544 -4.85755e-15 2.21497C -4.85755e-15 3.43938 0.922045 4.42994 2.06019 4.42994C 2.43477 4.42994 2.78054 4.31987 3.08309 4.14102L 3.08309 4.33364L 4.1348 4.33364L 4.1348 0.0963028L 3.08309 0.0963028ZM 2.07461 3.41187C 1.51273 3.41187 1.05171 2.87533 1.05171 2.2012C 1.05171 1.54085 1.51273 0.990544 2.07461 0.990544C 2.63648 0.990544 3.09751 1.52709 3.09751 2.2012C 3.08309 2.86158 2.63648 3.41187 2.07461 3.41187Z"/>
<path id="path3_fill" d="M 2.80936 -7.65285e-16L 2.80936 2.47636C 2.80936 2.94412 2.42038 3.31557 1.93053 3.31557C 1.4407 3.31557 1.05171 2.94412 1.05171 2.47636L 1.05171 -7.65285e-16L 0 -7.65285e-16L 0 2.47636C 0 3.49442 0.864417 4.31987 1.93053 4.31987C 2.24748 4.31987 2.55004 4.25109 2.80936 4.11351L 2.80936 4.20981L 3.86107 4.20981L 3.86107 -7.65285e-16L 2.80936 -7.65285e-16Z"/>
<path id="path4_fill" d="M 1.93053 2.17581e-15C 1.61358 2.17581e-15 1.31104 0.0687877 1.05171 0.206364L 1.05171 0.11006L 9.71511e-15 0.11006L 9.71511e-15 4.31987L 1.05171 4.31987L 1.05171 1.84351C 1.05171 1.37576 1.4407 1.0043 1.93053 1.0043C 2.42038 1.0043 2.80936 1.37576 2.80936 1.84351L 2.80936 4.31987L 3.86107 4.31987L 3.86107 1.84351C 3.86107 0.825453 2.99665 2.17581e-15 1.93053 2.17581e-15Z"/>
<path id="path5_fill" d="M 4.1348 2.21497C 4.1348 0.990544 3.21275 2.17581e-15 2.07461 2.17581e-15C 0.922045 2.17581e-15 -4.85755e-15 0.976786 -4.85755e-15 2.21497C -4.85755e-15 3.52193 1.16696 4.42994 2.21867 4.42994C 2.75172 4.42994 3.47209 4.25109 4.03396 3.48067L 3.12632 2.97162C 2.34833 3.87963 1.26781 3.26054 1.16696 2.50388L 4.12039 2.50388C 4.12039 2.40757 4.1348 2.31127 4.1348 2.21497ZM 2.95343 1.60963L 1.18137 1.60963C 1.38307 0.797939 2.75172 0.619089 2.95343 1.60963Z"/>
<path id="path6_fill" d="M 2.06019 3.3706L 4.12039 1.40327L 2.63648 1.40327L 1.05171 2.93036L 1.05171 0L -2.42878e-15 0L -2.42878e-15 5.61309L 1.05171 5.61309L 1.05171 3.8246L 2.92462 5.61309L 4.39412 5.61309L 2.06019 3.3706Z"/>
<path id="path7_fill" d="M 1.0373 5.26914L 1.0373 3.632L 1.77206 3.632L 3.05428 5.26914L 4.36531 5.26914L 2.82377 3.30182C 3.31361 2.97162 3.63056 2.43508 3.63056 1.81599C 3.63056 0.811695 2.78054 0 1.72884 0L 1.21439e-15 0L 1.21439e-15 5.26914L 1.0373 5.26914ZM 1.0373 1.0043L 1.71443 1.0043C 2.18985 1.0043 2.56443 1.37576 2.56443 1.81599C 2.56443 2.27 2.17545 2.6277 1.71443 2.6277L 1.0373 2.6277L 1.0373 1.0043Z"/>
<path id="path8_fill" d="M 6.12297 2.93036C 6.12297 4.53998 4.7543 5.86072 3.05428 5.86072C 1.36866 5.84697 0 4.53998 0 2.93036C 0 1.30697 1.36866 -2.34619e-17 3.06869 -2.34619e-17C 4.7543 -2.34619e-17 6.12297 1.30697 6.12297 2.93036Z"/>
<path id="path9_fill" d="M 0.633907 3.15047L 0.633907 2.17369L 1.08052 2.17369L 1.84409 3.15047L 2.62206 3.15047L 1.70003 1.96734C 1.98816 1.77472 2.17545 1.44454 2.17545 1.08685C 2.17545 0.495271 1.67121 -7.65285e-16 1.0373 -7.65285e-16L 2.24701e-24 -7.65285e-16L 2.24701e-24 3.13672L 0.633907 3.13672L 0.633907 3.15047ZM 0.633907 0.605333L 1.0373 0.605333C 1.31104 0.605333 1.54155 0.825453 1.54155 1.08685C 1.54155 1.362 1.31104 1.56836 1.0373 1.56836L 0.633907 1.56836L 0.633907 0.605333Z"/>
<path id="path10_fill" d="M 8.59508 6.31971L 4.71899 6.31971L 4.71899 28L 8.07827 28L 8.59508 26.5271C 9.62871 27.7674 10.9466 28.4135 12.5229 28.4135C 16.6574 28.4135 19.9908 24.6149 19.9908 19.8602C 19.9908 15.183 16.5798 11.3328 12.3937 11.3328C 10.8174 11.3328 9.55119 11.9788 8.59508 13.2192L 8.59508 6.31971ZM 12.342 14.9505C 14.4609 14.9505 16.1147 17.1211 16.1147 19.886C 16.1147 22.5993 14.4351 24.7958 12.342 24.7958C 10.1455 24.7958 8.59508 22.7544 8.59508 19.8602C 8.59508 17.0177 10.1714 14.9505 12.342 14.9505ZM 31.6754 11.7204L 28.1352 21.9791L 24.6209 11.7204L 20.5639 11.7204L 26.2747 27.4315L 26.1714 27.7674C 25.9905 28.3876 25.5512 28.7494 25.0344 28.7494C 24.5692 28.7494 24.2075 28.5685 23.8457 28.1292L 21.4942 30.6099C 22.5537 31.7986 23.794 32.3671 25.2669 32.3671C 27.36 32.3671 29.1172 31.0492 29.8407 28.9303L 35.7324 11.7204L 31.6754 11.7204Z"/>
<path id="path11_fill" d="M 39.6698 4.46545C 43.3256 1.80383 48.2808 1.80383 51.9367 4.46545L 83.2543 27.2663C 86.899 29.9199 88.424 34.6163 87.0334 38.9049L 75.0624 75.8245C 73.6692 80.1211 69.6666 83.0311 65.1498 83.0311L 26.4567 83.0311C 21.9398 83.0311 17.9372 80.1211 16.5441 75.8245L 4.57304 38.9049C 3.18249 34.6163 4.70747 29.9199 8.3522 27.2663L 39.6698 4.46545Z"/>
<path id="path12_fill" d="M 22.7369 56L 32.1601 35.5476L 31.8892 34.7543C 31.528 33.6965 31.0443 32.9032 30.438 32.3743C 29.8446 31.8454 29.0319 31.5809 28 31.5809C 27.1357 31.5809 26.265 31.6906 25.3878 31.9099L 25.3878 25.9696C 25.9038 25.8535 26.5358 25.7696 27.284 25.718C 28.0322 25.6664 28.6191 25.6406 29.0448 25.6406C 31.6506 25.6406 33.6758 26.1824 35.1206 27.266C 36.5653 28.3367 37.7586 30.1749 38.7002 32.7806L 43.4602 46.0931C 43.8859 47.254 44.2664 48.1441 44.6018 48.7633C 44.9501 49.3696 45.3113 49.8017 45.6854 50.0597C 46.0595 50.3177 46.5884 50.4467 47.2721 50.4467C 47.7493 50.4467 48.2331 50.3822 48.7233 50.2532L 48.7233 55.7291C 48.4266 55.8839 47.7945 56.0322 46.827 56.1741C 45.8724 56.316 45.1049 56.387 44.5244 56.387C 42.9249 56.387 41.564 55.9549 40.4417 55.0906C 39.3323 54.2263 38.3971 52.788 37.636 50.7756L 36.2815 47.0799C 35.8172 45.7125 35.4882 44.4741 35.2947 43.3648L 35.1399 43.3648C 34.8819 44.8998 34.5659 46.1253 34.1918 47.0412L 30.5928 56L 22.7369 56Z"/>
</defs>
</svg>
